<svg width="15" height="21" viewBox="0 0 15 21" fill="none" xmlns="http://www.w3.org/2000/svg">
    <path d="M10.83 20.85L6.03 12.51H3.42V20.85H0V0H7.2C8.8 0 10.15 0.28 11.25 0.84C12.37 1.4 13.2 2.15 13.74 3.09C14.3 4.03 14.58 5.08 14.58 6.24C14.58 7.6 14.18 8.84 13.38 9.96C12.6 11.06 11.39 11.81 9.75 12.21L14.91 20.85H10.83ZM3.42 9.78H7.2C8.48 9.78 9.44 9.46 10.08 8.82C10.74 8.18 11.07 7.32 11.07 6.24C11.07 5.16 10.75 4.32 10.11 3.72C9.47 3.1 8.5 2.79 7.2 2.79H3.42V9.78Z"
          fill="white"/>
</svg>
