<svg width="168" height="24" viewBox="0 0 168 24" fill="none" xmlns="http://www.w3.org/2000/svg">
<path d="M52.3676 19.3C49.8676 19.3 47.9176 18.6083 46.5176 17.225C45.1342 15.8417 44.4426 13.8667 44.4426 11.3V1.5H48.4926V11.15C48.4926 14.2833 49.7926 15.85 52.3926 15.85C53.6592 15.85 54.6259 15.475 55.2926 14.725C55.9592 13.9583 56.2926 12.7667 56.2926 11.15V1.5H60.2926V11.3C60.2926 13.8667 59.5926 15.8417 58.1926 17.225C56.8092 18.6083 54.8676 19.3 52.3676 19.3ZM71.9697 5.35C73.2197 5.35 74.3531 5.64167 75.3697 6.225C76.4031 6.79167 77.2114 7.6 77.7947 8.65C78.3781 9.68333 78.6697 10.8917 78.6697 12.275C78.6697 13.6583 78.3781 14.875 77.7947 15.925C77.2114 16.9583 76.4031 17.7667 75.3697 18.35C74.3531 18.9167 73.2197 19.2 71.9697 19.2C70.2531 19.2 68.9031 18.6583 67.9197 17.575V23.85H64.0197V5.55H67.7447V7.1C68.7114 5.93333 70.1197 5.35 71.9697 5.35ZM71.2947 16C72.2947 16 73.1114 15.6667 73.7447 15C74.3947 14.3167 74.7197 13.4083 74.7197 12.275C74.7197 11.1417 74.3947 10.2417 73.7447 9.575C73.1114 8.89167 72.2947 8.55 71.2947 8.55C70.2947 8.55 69.4697 8.89167 68.8197 9.575C68.1864 10.2417 67.8697 11.1417 67.8697 12.275C67.8697 13.4083 68.1864 14.3167 68.8197 15C69.4697 15.6667 70.2947 16 71.2947 16ZM89.2305 5.35C90.4805 5.35 91.6138 5.64167 92.6305 6.225C93.6638 6.79167 94.4721 7.6 95.0555 8.65C95.6388 9.68333 95.9305 10.8917 95.9305 12.275C95.9305 13.6583 95.6388 14.875 95.0555 15.925C94.4721 16.9583 93.6638 17.7667 92.6305 18.35C91.6138 18.9167 90.4805 19.2 89.2305 19.2C87.5138 19.2 86.1638 18.6583 85.1805 17.575V23.85H81.2805V5.55H85.0055V7.1C85.9721 5.93333 87.3805 5.35 89.2305 5.35ZM88.5555 16C89.5555 16 90.3721 15.6667 91.0055 15C91.6555 14.3167 91.9805 13.4083 91.9805 12.275C91.9805 11.1417 91.6555 10.2417 91.0055 9.575C90.3721 8.89167 89.5555 8.55 88.5555 8.55C87.5555 8.55 86.7305 8.89167 86.0805 9.575C85.4471 10.2417 85.1305 11.1417 85.1305 12.275C85.1305 13.4083 85.4471 14.3167 86.0805 15C86.7305 15.6667 87.5555 16 88.5555 16ZM98.5412 0.449999H102.441V19H98.5412V0.449999ZM119.236 12.325C119.236 12.375 119.211 12.725 119.161 13.375H108.986C109.169 14.2083 109.602 14.8667 110.286 15.35C110.969 15.8333 111.819 16.075 112.836 16.075C113.536 16.075 114.152 15.975 114.686 15.775C115.236 15.5583 115.744 15.225 116.211 14.775L118.286 17.025C117.019 18.475 115.169 19.2 112.736 19.2C111.219 19.2 109.877 18.9083 108.711 18.325C107.544 17.725 106.644 16.9 106.011 15.85C105.377 14.8 105.061 13.6083 105.061 12.275C105.061 10.9583 105.369 9.775 105.986 8.725C106.619 7.65833 107.477 6.83333 108.561 6.25C109.661 5.65 110.886 5.35 112.236 5.35C113.552 5.35 114.744 5.63333 115.811 6.2C116.877 6.76667 117.711 7.58333 118.311 8.65C118.927 9.7 119.236 10.925 119.236 12.325ZM112.261 8.3C111.377 8.3 110.636 8.55 110.036 9.05C109.436 9.55 109.069 10.2333 108.936 11.1H115.561C115.427 10.25 115.061 9.575 114.461 9.075C113.861 8.55833 113.127 8.3 112.261 8.3ZM126.891 5.35C128.974 5.35 130.574 5.85 131.691 6.85C132.808 7.83333 133.366 9.325 133.366 11.325V19H129.716V17.325C128.983 18.575 127.616 19.2 125.616 19.2C124.583 19.2 123.683 19.025 122.916 18.675C122.166 18.325 121.591 17.8417 121.191 17.225C120.791 16.6083 120.591 15.9083 120.591 15.125C120.591 13.875 121.058 12.8917 121.991 12.175C122.941 11.4583 124.399 11.1 126.366 11.1H129.466C129.466 10.25 129.208 9.6 128.691 9.15C128.174 8.68333 127.399 8.45 126.366 8.45C125.649 8.45 124.941 8.56667 124.241 8.8C123.558 9.01667 122.974 9.31667 122.491 9.7L121.091 6.975C121.824 6.45833 122.699 6.05833 123.716 5.775C124.749 5.49167 125.808 5.35 126.891 5.35ZM126.591 16.575C127.258 16.575 127.849 16.425 128.366 16.125C128.883 15.8083 129.249 15.35 129.466 14.75V13.375H126.791C125.191 13.375 124.391 13.9 124.391 14.95C124.391 15.45 124.583 15.85 124.966 16.15C125.366 16.4333 125.908 16.575 126.591 16.575ZM140.621 7.325C141.087 6.675 141.712 6.18333 142.496 5.85C143.296 5.51667 144.212 5.35 145.246 5.35V8.95C144.812 8.91667 144.521 8.9 144.371 8.9C143.254 8.9 142.379 9.21667 141.746 9.85C141.112 10.4667 140.796 11.4 140.796 12.65V19H136.896V5.55H140.621V7.325ZM155.74 5.35C157.406 5.35 158.748 5.85 159.765 6.85C160.798 7.85 161.315 9.33333 161.315 11.3V19H157.415V11.9C157.415 10.8333 157.181 10.0417 156.715 9.525C156.248 8.99167 155.573 8.725 154.69 8.725C153.706 8.725 152.923 9.03333 152.34 9.65C151.756 10.25 151.465 11.15 151.465 12.35V19H147.565V5.55H151.29V7.125C151.806 6.55833 152.448 6.125 153.215 5.825C153.981 5.50833 154.823 5.35 155.74 5.35Z" fill="black"/>
<mask id="path-2-inside-1_114_188" fill="white">
<path fill-rule="evenodd" clip-rule="evenodd" d="M33.5751 0.994629C35.6354 0.994629 37.3057 2.66486 37.3057 4.7252V15.9169C37.3057 17.9772 35.6354 19.6475 33.5751 19.6475H22.3833L18.6527 23.378V19.6475H18.6528V4.7252C18.6528 2.66486 20.323 0.994629 22.3834 0.994629H33.5751Z"/>
</mask>
<path d="M22.3833 19.6475L19.7454 17.0096L20.838 15.9169H22.3833V19.6475ZM18.6527 23.378L21.2906 26.0159L14.9222 32.3844V23.378H18.6527ZM18.6527 19.6475H14.9222V15.9169H18.6527V19.6475ZM18.6528 19.6475H22.3834V23.378H18.6528V19.6475ZM33.5751 4.7252V4.7252V-2.73594C37.6958 -2.73594 41.0362 0.604528 41.0362 4.7252H33.5751ZM33.5751 15.9169V4.7252H41.0362V15.9169H33.5751ZM33.5751 15.9169L33.5751 15.9169H41.0362C41.0362 20.0376 37.6958 23.378 33.5751 23.378V15.9169ZM22.3833 15.9169H33.5751V23.378H22.3833V15.9169ZM16.0148 20.7401L19.7454 17.0096L25.0212 22.2854L21.2906 26.0159L16.0148 20.7401ZM22.3833 19.6475V23.378H14.9222V19.6475H22.3833ZM18.6528 23.378H18.6527V15.9169H18.6528V23.378ZM22.3834 4.7252V19.6475H14.9222V4.7252H22.3834ZM22.3834 4.7252H22.3834H14.9222C14.9222 0.604523 18.2627 -2.73594 22.3834 -2.73594V4.7252ZM33.5751 4.7252H22.3834V-2.73594H33.5751V4.7252Z" fill="#222222" mask="url(#path-2-inside-1_114_188)"/>
<path fill-rule="evenodd" clip-rule="evenodd" d="M3.73057 0.994629C1.67023 0.994629 0 2.66486 0 4.7252V15.9169C0 17.9772 1.67023 19.6475 3.73057 19.6475H14.9224L18.6529 23.378V19.6475H18.6529V4.7252C18.6529 2.66486 16.9826 0.994629 14.9223 0.994629H3.73057Z" fill="#8B34F4"/>
</svg>
