<svg width="137" height="84" viewBox="0 0 137 84" fill="none" xmlns="http://www.w3.org/2000/svg">
<path d="M5.48856 76.8384C3.41499 76.1588 1.73908 75.2525 0.489258 74.0631L3.78425 70.0418C6.08507 72.0808 8.81197 73.1003 11.9933 73.1003C13.442 73.1003 14.6066 72.8171 15.5156 72.279C16.3961 71.741 16.8506 71.0613 16.8506 70.2684C16.8506 69.6737 16.595 69.1922 16.0553 68.7674C15.544 68.371 14.635 68.0311 13.3852 67.7763L8.15865 66.7851C5.88624 66.3603 4.18193 65.5674 3.07413 64.4346C1.93792 63.3018 1.39822 61.8576 1.39822 60.1584C1.39822 58.6292 1.85271 57.2698 2.73327 56.1371C3.64223 55.0043 4.89206 54.1264 6.48275 53.5034C8.07343 52.8804 9.89136 52.5972 11.9081 52.5972C13.8113 52.5972 15.6576 52.8804 17.3903 53.4184C19.123 53.9565 20.6569 54.8061 21.9351 55.9672L18.8674 59.8752C16.7086 58.1194 14.3226 57.2698 11.7377 57.2698C10.3458 57.2698 9.20964 57.4964 8.27227 57.9778C7.3349 58.4592 6.88042 59.054 6.88042 59.7903C6.88042 60.2717 7.10766 60.6965 7.59054 61.0363C8.07343 61.3761 8.95399 61.716 10.2606 61.9425L15.0895 62.8204C17.5039 63.2735 19.3219 64.1231 20.5149 65.3975C21.7363 66.6435 22.3328 68.1444 22.3328 69.9002C22.3328 71.4578 21.9067 72.8454 21.083 74.0348C20.2592 75.2242 19.0662 76.1588 17.5323 76.8101C15.9985 77.4614 14.2089 77.8013 12.1922 77.8013C9.74934 77.8013 7.50533 77.4614 5.43175 76.8101L5.48856 76.8384Z" fill="#FCFCFC"/>
<path d="M30.1304 76.674C28.5493 75.829 27.3353 74.6461 26.4882 73.1532C25.6412 71.6604 25.1895 70.0268 25.1895 68.2241C25.1895 66.4215 25.613 64.7878 26.4882 63.295C27.3353 61.8022 28.5493 60.6473 30.1304 59.7742C31.7115 58.9292 33.4903 58.4785 35.5231 58.4785C37.556 58.4785 39.363 58.901 40.9159 59.7742C42.497 60.6192 43.711 61.8022 44.5581 63.295C45.4051 64.7878 45.8568 66.4215 45.8568 68.2241C45.8568 70.0268 45.4333 71.6604 44.5581 73.1532C43.711 74.6461 42.497 75.8009 40.9159 76.674C39.3347 77.519 37.556 77.9697 35.5231 77.9697C33.4903 77.9697 31.6833 77.5472 30.1304 76.674ZM38.1489 72.6744C38.9395 72.2519 39.5889 71.6322 40.0406 70.8717C40.4923 70.1113 40.7465 69.2099 40.7465 68.2241C40.7465 67.2383 40.5206 66.337 40.0406 65.5765C39.5889 64.7878 38.9395 64.1963 38.1489 63.7738C37.3584 63.3513 36.4831 63.126 35.5231 63.126C34.5632 63.126 33.6879 63.3513 32.8974 63.7738C32.1068 64.1963 31.4574 64.816 31.0057 65.5765C30.5539 66.3651 30.2998 67.2383 30.2998 68.2241C30.2998 69.2099 30.5257 70.1113 31.0057 70.8717C31.4574 71.6604 32.1068 72.2519 32.8974 72.6744C33.6879 73.0969 34.5632 73.3222 35.5231 73.3222C36.4831 73.3222 37.3584 73.0969 38.1489 72.6744Z" fill="#FCFCFC"/>
<path d="M64.797 59.7783C66.2773 60.626 67.3875 61.8127 68.1846 63.3102C68.9817 64.8078 69.3803 66.4466 69.3803 68.255C69.3803 70.0634 68.9817 71.7022 68.1846 73.1998C67.3875 74.6973 66.2488 75.8558 64.797 76.7317C63.3167 77.5794 61.6371 78.0315 59.7583 78.0315C57.3101 78.0315 55.3458 77.2686 53.837 75.7145V83.6826H48.7129V58.9306H53.6093V61.0215C55.1465 59.3262 57.1962 58.4785 59.7583 58.4785C61.6371 58.4785 63.3167 58.9024 64.797 59.7783ZM62.7758 71.9565C63.7437 70.9958 64.2277 69.7526 64.2277 68.255C64.2277 66.7574 63.7437 65.5424 62.7758 64.5535C61.8079 63.5928 60.5553 63.0842 58.9896 63.0842C57.4239 63.0842 56.1429 63.5645 55.175 64.5535C54.2071 65.5142 53.6947 66.7574 53.6947 68.255C53.6947 69.7526 54.1786 70.9675 55.175 71.9565C56.1429 72.9172 57.4239 73.4258 58.9896 73.4258C60.5553 73.4258 61.8079 72.9454 62.7758 71.9565Z" fill="#FCFCFC"/>
<path d="M87.1569 59.2705C88.3157 59.8684 89.2202 60.7224 89.8985 61.8612C90.5486 62.9716 90.8877 64.2527 90.8877 65.6762V77.605H85.8002V66.8434C85.8002 65.6762 85.4611 64.7652 84.811 64.1388C84.1609 63.484 83.2282 63.1708 81.9846 63.1708C80.741 63.1708 79.667 63.5125 78.8756 64.1958C78.0559 64.879 77.6602 65.7901 77.6602 66.9289V77.6335H72.5728V51.9253H77.6602V60.4947C78.9886 59.0712 80.8258 58.3879 83.2 58.3879C84.698 58.3879 86.0264 58.7011 87.1852 59.299L87.1569 59.2705Z" fill="#FCFCFC"/>
<path d="M94.7889 56.217C94.2235 55.678 93.9126 54.9689 93.9126 54.1463C93.9126 53.3236 94.1953 52.6145 94.7889 52.0755C95.3542 51.5366 96.0891 51.2529 96.9371 51.2529C97.7851 51.2529 98.52 51.5366 99.0853 52.0755C99.6507 52.6145 99.9616 53.3236 99.9616 54.1463C99.9616 54.9689 99.6789 55.678 99.0853 56.217C98.52 56.7559 97.7851 57.0396 96.9371 57.0396C96.0891 57.0396 95.3542 56.7559 94.7889 56.217ZM94.3931 58.9117H99.4811V77.6332H94.3931V58.9117Z" fill="#FCFCFC"/>
<path d="M108.348 73.1675C109.601 73.563 110.854 73.789 112.108 73.789C113.276 73.789 114.131 73.6195 114.729 73.2805C115.299 72.9415 115.612 72.5461 115.612 72.0658C115.612 71.4444 115.071 71.0489 114.017 70.8794L109.402 70.145C107.293 69.806 105.755 69.1563 104.787 68.1959C103.818 67.2354 103.305 66.049 103.305 64.6084C103.305 63.3937 103.647 62.3203 104.359 61.3881C105.043 60.4559 106.04 59.7497 107.322 59.2412C108.604 58.7327 110.114 58.4785 111.88 58.4785C113.333 58.4785 114.843 58.6763 116.353 59.0435C117.891 59.439 119.259 60.0604 120.512 60.9361L118.005 64.5236C117.264 63.9869 116.324 63.5349 115.185 63.1677C114.045 62.8005 112.963 62.631 111.88 62.631C110.911 62.631 110.085 62.7722 109.459 63.083C108.832 63.3937 108.49 63.7609 108.49 64.2129C108.49 64.5236 108.661 64.7778 109.031 64.9756C109.402 65.1733 109.943 65.3428 110.712 65.4558L114.814 66.1055C118.803 66.727 120.797 68.5348 120.797 71.5856C120.797 72.885 120.455 73.9867 119.743 74.9472C119.031 75.9076 118.034 76.642 116.723 77.1788C115.413 77.6872 113.874 77.9697 112.136 77.9697C110.399 77.9697 108.661 77.7155 106.895 77.2352C105.128 76.755 103.704 76.0488 102.65 75.2014L105.157 71.5009C106.068 72.2071 107.151 72.7438 108.405 73.1675H108.348Z" fill="#FCFCFC"/>
<path d="M136.591 72.5847V77.1209C135.679 77.5745 134.481 77.8013 132.97 77.8013C130.462 77.8013 128.58 77.2059 127.354 76.0435C126.129 74.8811 125.501 73.2651 125.501 71.2805V63.1438H122.309V58.8344H125.558V54.9787L130.633 52.5972V58.8061H136.42V63.1154H130.633V70.5434C130.633 71.4506 130.918 72.1027 131.46 72.528C132.001 72.9249 132.742 73.1517 133.655 73.1517C134.567 73.1517 135.593 72.9816 136.591 72.613V72.5847Z" fill="#FCFCFC"/>
<mask id="path-8-inside-1_3100_11103" fill="white">
<path fill-rule="evenodd" clip-rule="evenodd" d="M98.8772 -0.00585938C103.053 -0.00585938 106.438 3.37942 106.438 7.55538V30.2391C106.438 34.415 103.053 37.8003 98.8772 37.8003H68.6323V7.55537C68.6323 3.37942 72.0176 -0.00585938 76.1935 -0.00585938H98.8772ZM68.632 37.8005H76.1932L68.632 45.3617V37.8005Z"/>
</mask>
<path d="M68.6323 37.8003V45.3615H61.0711V37.8003H68.6323ZM76.1932 37.8005V30.2393H94.4476L81.5398 43.1471L76.1932 37.8005ZM68.632 37.8005H61.0707V30.2393H68.632V37.8005ZM68.632 45.3617L73.9786 50.7083L61.0707 63.6162V45.3617H68.632ZM98.8772 7.55538L98.8772 7.55537V-7.56709C107.229 -7.56709 114 -0.796528 114 7.55538H98.8772ZM98.8772 30.2391V7.55538H114V30.2391H98.8772ZM98.8772 30.2391H98.8772H114C114 38.591 107.229 45.3615 98.8772 45.3615V30.2391ZM68.6323 30.2391H98.8772V45.3615H68.6323V30.2391ZM76.1935 7.55537V37.8003H61.0711V7.55537H76.1935ZM76.1935 7.55537L76.1935 7.55537H61.0711C61.0711 -0.796534 67.8416 -7.56709 76.1935 -7.56709V7.55537ZM98.8772 7.55537H76.1935V-7.56709H98.8772V7.55537ZM76.1932 45.3617H68.632V30.2393H76.1932V45.3617ZM63.2854 40.0151L70.8466 32.4539L81.5398 43.1471L73.9786 50.7083L63.2854 40.0151ZM76.1932 37.8005V45.3617H61.0707V37.8005H76.1932Z" fill="#FCFCFC" mask="url(#path-8-inside-1_3100_11103)"/>
<path fill-rule="evenodd" clip-rule="evenodd" d="M38.3874 -0.00585938C34.2115 -0.00585938 30.8262 3.37942 30.8262 7.55538V30.2391C30.8262 34.415 34.2115 37.8003 38.3874 37.8003H68.6323V7.55537C68.6323 3.37942 65.2471 -0.00585938 61.0711 -0.00585938H38.3874ZM68.6322 37.8005H61.071L68.6322 45.3617V37.8005Z" fill="#8B34F4"/>
</svg>
