<svg width="46" height="46" viewBox="0 0 46 46" fill="none" xmlns="http://www.w3.org/2000/svg">
<path d="M23 0.25C18.5005 0.25 14.102 1.58426 10.3608 4.08407C6.61957 6.58387 3.70364 10.1369 1.98175 14.294C0.259857 18.451 -0.190669 23.0252 0.687145 27.4383C1.56496 31.8514 3.73169 35.905 6.91333 39.0867C10.095 42.2683 14.1486 44.435 18.5617 45.3129C22.9748 46.1907 27.549 45.7402 31.7061 44.0183C35.8631 42.2964 39.4161 39.3804 41.9159 35.6392C44.4157 31.898 45.75 27.4995 45.75 23C45.7436 16.9683 43.3447 11.1854 39.0797 6.92035C34.8146 2.65528 29.0317 0.25637 23 0.25ZM31.75 24.75H18.4741L22.4881 28.7619C22.6507 28.9245 22.7797 29.1175 22.8677 29.3299C22.9557 29.5424 23.001 29.7701 23.001 30C23.001 30.2299 22.9557 30.4576 22.8677 30.6701C22.7797 30.8825 22.6507 31.0755 22.4881 31.2381C22.3255 31.4007 22.1325 31.5297 21.9201 31.6177C21.7076 31.7057 21.4799 31.751 21.25 31.751C21.0201 31.751 20.7924 31.7057 20.5799 31.6177C20.3675 31.5297 20.1745 31.4007 20.0119 31.2381L13.0119 24.2381C12.8492 24.0756 12.7201 23.8826 12.632 23.6701C12.544 23.4577 12.4986 23.23 12.4986 23C12.4986 22.77 12.544 22.5423 12.632 22.3299C12.7201 22.1174 12.8492 21.9244 13.0119 21.7619L20.0119 14.7619C20.3403 14.4335 20.7856 14.249 21.25 14.249C21.7144 14.249 22.1598 14.4335 22.4881 14.7619C22.8165 15.0902 23.001 15.5356 23.001 16C23.001 16.4644 22.8165 16.9098 22.4881 17.2381L18.4741 21.25H31.75C32.2141 21.25 32.6593 21.4344 32.9874 21.7626C33.3156 22.0907 33.5 22.5359 33.5 23C33.5 23.4641 33.3156 23.9092 32.9874 24.2374C32.6593 24.5656 32.2141 24.75 31.75 24.75Z" fill="#CCCCCC"/>
</svg>
