<svg width="28" height="34" viewBox="0 0 28 34" fill="none" xmlns="http://www.w3.org/2000/svg">
<path d="M27.3844 7.36562L21.1344 1.11563C21.0182 0.999582 20.8803 0.907565 20.7286 0.84483C20.5768 0.782095 20.4142 0.749871 20.25 0.75H7.75C7.08696 0.75 6.45107 1.01339 5.98223 1.48223C5.51339 1.95107 5.25 2.58696 5.25 3.25V5.75H2.75C2.08696 5.75 1.45107 6.01339 0.982233 6.48223C0.513392 6.95107 0.25 7.58696 0.25 8.25V30.75C0.25 31.413 0.513392 32.0489 0.982233 32.5178C1.45107 32.9866 2.08696 33.25 2.75 33.25H20.25C20.913 33.25 21.5489 32.9866 22.0178 32.5178C22.4866 32.0489 22.75 31.413 22.75 30.75V28.25H25.25C25.913 28.25 26.5489 27.9866 27.0178 27.5178C27.4866 27.0489 27.75 26.413 27.75 25.75V8.25C27.7501 8.0858 27.7179 7.92318 27.6552 7.77144C27.5924 7.61969 27.5004 7.4818 27.3844 7.36562ZM15.25 27H7.75C7.41848 27 7.10054 26.8683 6.86612 26.6339C6.6317 26.3995 6.5 26.0815 6.5 25.75C6.5 25.4185 6.6317 25.1005 6.86612 24.8661C7.10054 24.6317 7.41848 24.5 7.75 24.5H15.25C15.5815 24.5 15.8995 24.6317 16.1339 24.8661C16.3683 25.1005 16.5 25.4185 16.5 25.75C16.5 26.0815 16.3683 26.3995 16.1339 26.6339C15.8995 26.8683 15.5815 27 15.25 27ZM15.25 22H7.75C7.41848 22 7.10054 21.8683 6.86612 21.6339C6.6317 21.3995 6.5 21.0815 6.5 20.75C6.5 20.4185 6.6317 20.1005 6.86612 19.8661C7.10054 19.6317 7.41848 19.5 7.75 19.5H15.25C15.5815 19.5 15.8995 19.6317 16.1339 19.8661C16.3683 20.1005 16.5 20.4185 16.5 20.75C16.5 21.0815 16.3683 21.3995 16.1339 21.6339C15.8995 21.8683 15.5815 22 15.25 22ZM25.25 25.75H22.75V13.25C22.7501 13.0858 22.7179 12.9232 22.6552 12.7714C22.5924 12.6197 22.5004 12.4818 22.3844 12.3656L16.1344 6.11563C16.0182 5.99958 15.8803 5.90757 15.7286 5.84483C15.5768 5.78209 15.4142 5.74987 15.25 5.75H7.75V3.25H19.7328L25.25 8.76719V25.75Z" fill="#2F80ED"/>
</svg>
