<svg width="40" height="40" viewBox="0 0 40 40" fill="none" xmlns="http://www.w3.org/2000/svg">
<path d="M37.5 15.9375C37.5 26.875 21.2828 35.7281 20.5922 36.0938C20.4102 36.1917 20.2067 36.2429 20 36.2429C19.7933 36.2429 19.5898 36.1917 19.4078 36.0938C18.8844 35.8125 9.47813 30.6734 4.92656 23.4547C4.86785 23.3601 4.83545 23.2516 4.83272 23.1403C4.82999 23.0291 4.85702 22.9191 4.91102 22.8218C4.96501 22.7245 5.04402 22.6433 5.13988 22.5867C5.23573 22.5302 5.34495 22.5002 5.45625 22.5H11.25C11.4558 22.5001 11.6585 22.4494 11.8401 22.3524C12.0216 22.2554 12.1764 22.115 12.2906 21.9438L13.75 19.7563L17.7094 25.6938C17.8611 25.9213 18.0832 26.0928 18.3417 26.182C18.6003 26.2711 18.8809 26.2731 19.1406 26.1875C19.4162 26.0942 19.6519 25.9102 19.8094 25.6656L21.9188 22.5H25C25.1714 22.5004 25.341 22.4655 25.4983 22.3976C25.6556 22.3297 25.7973 22.2301 25.9145 22.1051C26.0317 21.9801 26.122 21.8324 26.1797 21.671C26.2374 21.5097 26.2614 21.3382 26.25 21.1672C26.222 20.8459 26.0736 20.547 25.8346 20.3306C25.5955 20.1141 25.2834 19.996 24.9609 20H21.25C21.0442 19.9999 20.8415 20.0506 20.6599 20.1476C20.4784 20.2446 20.3236 20.385 20.2094 20.5562L18.75 22.7437L14.7906 16.8062C14.6388 16.5784 14.4164 16.4067 14.1576 16.3175C13.8987 16.2283 13.6178 16.2265 13.3578 16.3125C13.083 16.4063 12.8479 16.5902 12.6906 16.8344L10.5813 20H3.67656C3.54299 20.0004 3.41281 19.9579 3.30511 19.8789C3.19741 19.7999 3.11786 19.6885 3.07813 19.5609C2.70112 18.3898 2.50614 17.1678 2.5 15.9375C2.50289 13.3691 3.52447 10.9067 5.3406 9.0906C7.15673 7.27447 9.6191 6.25289 12.1875 6.25C15.4141 6.25 18.2391 7.6375 20 9.98281C21.7609 7.6375 24.5859 6.25 27.8125 6.25C30.3809 6.25289 32.8433 7.27447 34.6594 9.0906C36.4755 10.9067 37.4971 13.3691 37.5 15.9375Z" fill="#2F80ED"/>
</svg>
