<svg width="30" height="33" viewBox="0 0 30 33" fill="none" xmlns="http://www.w3.org/2000/svg">
<path d="M27.5 2.5H23.75V1.25C23.75 0.918479 23.6183 0.600537 23.3839 0.366116C23.1495 0.131696 22.8315 0 22.5 0C22.1685 0 21.8505 0.131696 21.6161 0.366116C21.3817 0.600537 21.25 0.918479 21.25 1.25V2.5H8.75V1.25C8.75 0.918479 8.6183 0.600537 8.38388 0.366116C8.14946 0.131696 7.83152 0 7.5 0C7.16848 0 6.85054 0.131696 6.61612 0.366116C6.3817 0.600537 6.25 0.918479 6.25 1.25V2.5H2.5C1.83696 2.5 1.20107 2.76339 0.732233 3.23223C0.263392 3.70107 0 4.33696 0 5V30C0 30.663 0.263392 31.2989 0.732233 31.7678C1.20107 32.2366 1.83696 32.5 2.5 32.5H27.5C28.163 32.5 28.7989 32.2366 29.2678 31.7678C29.7366 31.2989 30 30.663 30 30V5C30 4.33696 29.7366 3.70107 29.2678 3.23223C28.7989 2.76339 28.163 2.5 27.5 2.5ZM6.25 7.5V6.25C6.25 5.91848 6.3817 5.60054 6.61612 5.36612C6.85054 5.1317 7.16848 5 7.5 5C7.83152 5 8.14946 5.1317 8.38388 5.36612C8.6183 5.60054 8.75 5.91848 8.75 6.25V7.5C8.75 7.83152 8.6183 8.14946 8.38388 8.38388C8.14946 8.6183 7.83152 8.75 7.5 8.75C7.16848 8.75 6.85054 8.6183 6.61612 8.38388C6.3817 8.14946 6.25 7.83152 6.25 7.5ZM19.15 23.6047C17.9528 24.5964 16.6557 25.461 15.2797 26.1844C15.1929 26.2278 15.0971 26.2504 15 26.2504C14.9029 26.2504 14.8071 26.2278 14.7203 26.1844C13.3443 25.461 12.0472 24.5964 10.85 23.6047C8.2125 21.4063 6.875 19.1422 6.875 16.875C6.87542 15.9186 7.1892 14.9887 7.76832 14.2276C8.34745 13.4666 9.16001 12.9162 10.0816 12.6608C11.0033 12.4054 11.9832 12.459 12.8715 12.8135C13.7597 13.1679 14.5074 13.8037 15 14.6234C15.4926 13.8037 16.2403 13.1679 17.1285 12.8135C18.0168 12.459 18.9967 12.4054 19.9183 12.6608C20.84 12.9162 21.6525 13.4666 22.2317 14.2276C22.8108 14.9887 23.1246 15.9186 23.125 16.875C23.125 19.1422 21.7875 21.4063 19.15 23.6047ZM23.75 7.5C23.75 7.83152 23.6183 8.14946 23.3839 8.38388C23.1495 8.6183 22.8315 8.75 22.5 8.75C22.1685 8.75 21.8505 8.6183 21.6161 8.38388C21.3817 8.14946 21.25 7.83152 21.25 7.5V6.25C21.25 5.91848 21.3817 5.60054 21.6161 5.36612C21.8505 5.1317 22.1685 5 22.5 5C22.8315 5 23.1495 5.1317 23.3839 5.36612C23.6183 5.60054 23.75 5.91848 23.75 6.25V7.5Z" fill="#2F80ED"/>
</svg>
