<svg width="22" height="21" viewBox="0 0 22 21" fill="none" xmlns="http://www.w3.org/2000/svg">
<path d="M20.9647 9.2671L16.7459 12.9074L18.0313 18.3515C18.1022 18.647 18.0839 18.9569 17.9788 19.2421C17.8736 19.5272 17.6864 19.7748 17.4406 19.9536C17.1948 20.1324 16.9015 20.2343 16.5979 20.2465C16.2942 20.2587 15.9937 20.1806 15.7344 20.0221L11 17.1083L6.26282 20.0221C6.00353 20.1797 5.70341 20.257 5.40026 20.2444C5.0971 20.2318 4.80446 20.1297 4.55919 19.9511C4.31392 19.7725 4.12698 19.5253 4.02191 19.2406C3.91685 18.956 3.89835 18.6466 3.96875 18.3515L5.25875 12.9074L1.04 9.2671C0.810594 9.06882 0.644682 8.80736 0.562986 8.51536C0.48129 8.22336 0.487431 7.91376 0.580642 7.62522C0.673852 7.33669 0.850002 7.08201 1.08709 6.89299C1.32418 6.70397 1.6117 6.58899 1.91375 6.56241L7.445 6.11616L9.57875 0.952409C9.69425 0.670988 9.89082 0.430267 10.1435 0.260851C10.3961 0.0914349 10.6935 0.000976562 10.9977 0.000976562C11.3019 0.000976562 11.5992 0.0914349 11.8518 0.260851C12.1045 0.430267 12.3011 0.670988 12.4166 0.952409L14.5494 6.11616L20.0806 6.56241C20.3833 6.588 20.6716 6.70234 20.9096 6.8911C21.1475 7.07986 21.3245 7.33464 21.4183 7.62352C21.5121 7.91241 21.5185 8.22254 21.4368 8.51508C21.3552 8.80761 21.189 9.06954 20.9591 9.26803L20.9647 9.2671Z" fill="#2F80ED"/>
</svg>
